<svg xmlns="http://www.w3.org/2000/svg" viewBox="0 0 601.11 118.2"><defs><style>.cls-1{fill:#ff9700;}.cls-2{fill:#f50;}</style></defs><g id="Слой_2" data-name="Слой 2"><g id="Слой_1-2" data-name="Слой 1"><path class="cls-1" d="M274.25,47.58V59.34h-8V54.09H239.42v5.25h-8V47.58H233c3.64,0,4.74-1.54,4.74-6.68V27.75H270V47.58ZM262,34.27H245.78v7c0,3-.95,5.17-2.81,6.28h19Z"/><path class="cls-1" d="M305.41,27.87c4.07.75,6,2.84,6.59,7.07a53.57,53.57,0,0,1,.24,6.4c0,6.35-.67,8.92-2.92,10.78-1.58,1.34-3.79,2-7.62,2.13-1.42.08-4.94.12-7.51.12-6.28,0-9.47-.12-11.05-.44-2.93-.51-4.62-1.62-5.61-3.55s-1.26-3.87-1.26-9.64c0-4.42.07-5.52.55-7.3.75-2.81,2.29-4.31,5.25-5.18,2.21-.63,4.62-.78,11.57-.78C301.22,27.48,303.55,27.55,305.41,27.87Zm-19.67,7c-1.06.83-1.38,2.13-1.38,5.92s.32,5.3,1.3,6.12,2.37,1,8.42,1c6.91,0,8.33-.24,9.24-1.5.75-1,.94-2.29.94-5.8,0-6.64-.11-6.72-10-6.72C288.39,33.91,286.77,34.11,285.74,34.86Z"/><path class="cls-1" d="M317.41,27.75h12.72l9.6,17.5,9.55-17.5h12.64V54.09H354.1l.4-20.34L342.81,54.09h-6.4L324.92,33.75l.23,20.34h-7.74Z"/><path class="cls-1" d="M415.51,47.58V59.34h-8V54.09H380.68v5.25h-8V47.58h1.62c3.63,0,4.74-1.54,4.74-6.68V27.75h32.22V47.58ZM403.23,34.27H387v7c0,3-1,5.17-2.81,6.28h19Z"/><path class="cls-1" d="M418.08,27.75h23.77c3.08,0,4.7.28,6.08.95,2.09,1.07,3,2.88,3,6,0,2.33-.55,4-1.7,4.86a6.65,6.65,0,0,1-3.47,1.22c2.37.2,3.43.52,4.38,1.15,1.27.91,1.86,2.53,1.86,5,0,3.11-1,5.21-3,6.31-1.23.64-3,.91-6,.91H418.08Zm21.28,10.51a5.94,5.94,0,0,0,2.61-.32,2.41,2.41,0,0,0-.36-4.15,8,8,0,0,0-2.45-.19H425.89v4.66Zm.87,10a7.26,7.26,0,0,0,2.45-.2,2.11,2.11,0,0,0,1.26-2.17,2.15,2.15,0,0,0-1.34-2.25,7.34,7.34,0,0,0-2.57-.2H425.89v4.82Z"/><path class="cls-1" d="M486.35,27.75v6H465.07v4.55h20.06v5.21H465.07v4.66h21.56v6H457.17V27.75Z"/><path class="cls-1" d="M491.41,27.75h20.14c5.09,0,6.4.16,8.05,1,2.65,1.3,3.64,3.71,3.64,8.69s-.91,7.62-3.08,9c-1.54,1-3.32,1.23-7.9,1.23H499.39v6.47h-8ZM511,41.22c3.27,0,4.22-.71,4.22-3.2,0-3.16-.79-3.87-4.22-3.87H499.39v7.07Z"/><path class="cls-1" d="M556.92,27.75v6H535.64v4.55H555.7v5.21H535.64v4.66H557.2v6H527.74V27.75Z"/><path class="cls-1" d="M570,27.75V46.19l16.39-18.44h9.88V54.09h-8V35.65L571.85,54.09H562V27.75Zm4.86-8.57c.16,2.53,1,3.16,4.27,3.16s4.06-.55,4.26-3.16h5c-.63,5.29-2.49,6.64-9.28,6.64s-8.69-1.35-9.28-6.64Z"/><path class="cls-1" d="M239.54,70.78v19l16.88-19H266.6V97.92h-8.26v-19l-16.89,19H231.28V70.78Z"/><path class="cls-1" d="M290.31,84.54c0,5.77-.65,8.29-2.64,10.45s-4.68,3.13-8.5,3.13h-.74V91.7a3.2,3.2,0,0,0,3.1-2.24,12.39,12.39,0,0,0,.53-4.6V70.78h33.19V97.92H307V77.5H290.31Z"/><path class="cls-1" d="M333.16,70.78h11.06l14.85,27.14h-9l-2.68-4.84h-17.5l-2.6,4.84H317.9Zm11.31,16.64L338.61,76.6l-5.78,10.82Z"/><path class="cls-1" d="M361.68,70.78h13.1l9.88,18,9.85-18h13V97.92h-8.06l.41-21-12,21h-6.59L369.41,77l.24,21h-8Z"/><path class="cls-1" d="M421.69,70.78v19l16.88-19h10.17V97.92h-8.25v-19l-16.89,19H413.43V70.78Z"/><path class="cls-1" d="M454.6,70.78h8.26v10h18.8v-10h8.26V97.92h-8.26V87.55h-18.8V97.92H454.6Z"/><path class="cls-1" d="M507.78,70.78h11.07L533.7,97.92h-9L522,93.08h-17.5l-2.6,4.84h-9.36Zm11.31,16.64L513.23,76.6l-5.78,10.82Z"/><path class="cls-1" d="M542.77,77.5H530.69V70.78h32.42V77.5H551V97.92h-8.26Z"/><path class="cls-1" d="M575.2,70.78h11.06l14.85,27.14h-9l-2.68-4.84H571.9l-2.6,4.84h-9.36Zm11.31,16.64L580.65,76.6l-5.78,10.82Z"/><polygon class="cls-1" points="0.15 59.61 82.63 59.61 138.98 0 56.5 0 0.15 59.61"/><polygon class="cls-2" points="196.22 59.61 113.74 59.61 57.4 0 139.87 0 196.22 59.61"/><rect class="cls-1" y="71.72" width="195.87" height="46.48"/></g></g></svg>